<svg width="30" height="30" viewBox="0 0 30 30" fill="none" xmlns="http://www.w3.org/2000/svg">
<path d="M15 22.5C15 18.3625 11.6375 15 7.5 15C6.1375 15 4.85 15.375 3.75 16.0125V15L6.35 7.5C6.6 6.775 7.3 6.25 8.125 6.25H21.875C22.7 6.25 23.4 6.775 23.65 7.5L26.25 15V25C26.25 25.6875 25.6875 26.25 25 26.25H23.75C23.0625 26.25 22.5 25.6875 22.5 25V23.75H14.8875C14.95 23.3375 15 22.925 15 22.5ZM21.875 8.125H8.125L6.25 13.75H23.75L21.875 8.125ZM21.875 20C22.9125 20 23.75 19.1625 23.75 18.125C23.75 17.0875 22.9125 16.25 21.875 16.25C20.8375 16.25 20 17.0875 20 18.125C20 19.1625 20.8375 20 21.875 20ZM6.25 26.25V23.75H11.25V21.25H6.25V18.75L2.5 22.5L6.25 26.25Z" fill="#D0D0D0"/>
</svg>
