<svg width="30" height="30" viewBox="0 0 30 30" fill="none" xmlns="http://www.w3.org/2000/svg">
<path d="M15 22.5C15 18.3625 18.3625 15 22.5 15C23.8625 15 25.15 15.375 26.25 16.0125V15L23.65 7.5C23.4 6.775 22.7 6.25 21.875 6.25H8.125C7.3 6.25 6.6 6.775 6.35 7.5L3.75 15V25C3.75 25.6875 4.3125 26.25 5 26.25H6.25C6.9375 26.25 7.5 25.6875 7.5 25V23.75H15.1125C15.05 23.3375 15 22.925 15 22.5ZM8.125 8.125H21.875L23.75 13.75H6.25L8.125 8.125ZM8.125 20C7.0875 20 6.25 19.1625 6.25 18.125C6.25 17.0875 7.0875 16.25 8.125 16.25C9.1625 16.25 10 17.0875 10 18.125C10 19.1625 9.1625 20 8.125 20ZM23.75 26.25V23.75H18.75V21.25H23.75V18.75L27.5 22.5L23.75 26.25Z" fill="#D0D0D0"/>
</svg>
