<svg width="18" height="18" viewBox="0 0 18 18" fill="none" xmlns="http://www.w3.org/2000/svg">
<path d="M16.8948 10.0426L15.6636 6.35051C15.485 5.81295 15.1415 5.34534 14.6818 5.01409C14.2221 4.68285 13.6697 4.50483 13.1031 4.50534H4.8969C4.33025 4.50483 3.77785 4.68285 3.3182 5.01409C2.85854 5.34534 2.515 5.81295 2.3364 6.35051L1.1052 10.0426C0.7778 10.1796 0.498204 10.4102 0.30156 10.7055C0.104916 11.0009 -4.3281e-07 11.3477 0 11.7025V14.4014C0 15.0654 0.3636 15.6393 0.9 15.9515V17.1004C0.9 17.339 0.994821 17.5678 1.1636 17.7365C1.33239 17.9052 1.56131 18 1.8 18H2.7C2.93869 18 3.16761 17.9052 3.3364 17.7365C3.50518 17.5678 3.6 17.339 3.6 17.1004V16.2007H14.4V17.1004C14.4 17.339 14.4948 17.5678 14.6636 17.7365C14.8324 17.9052 15.0613 18 15.3 18H16.2C16.4387 18 16.6676 17.9052 16.8364 17.7365C17.0052 17.5678 17.1 17.339 17.1 17.1004V15.9515C17.3731 15.795 17.6 15.5693 17.758 15.2971C17.916 15.025 17.9995 14.7161 18 14.4014V11.7025C18 10.9549 17.5437 10.3152 16.8948 10.0426ZM4.8969 6.30463H13.1022C13.2912 6.30458 13.4754 6.36399 13.6287 6.47444C13.782 6.58489 13.8966 6.74077 13.9563 6.91998L14.9517 9.9032H3.0483L4.0428 6.91998C4.1661 6.55203 4.5099 6.30463 4.8969 6.30463ZM3.15 14.4014C2.97266 14.4014 2.79706 14.3664 2.63324 14.2985C2.46942 14.2306 2.32058 14.1311 2.19522 14.0057C1.94205 13.7525 1.79988 13.4091 1.8 13.0511C1.80012 12.693 1.94251 12.3497 2.19586 12.0967C2.4492 11.8436 2.79274 11.7015 3.1509 11.7016C3.50906 11.7017 3.85251 11.844 4.10568 12.0973C4.35885 12.3505 4.50102 12.6939 4.5009 13.052C4.50078 13.41 4.35839 13.7533 4.10504 14.0064C3.8517 14.2594 3.50816 14.4015 3.15 14.4014ZM14.85 14.4014C14.4918 14.4013 14.1484 14.259 13.8952 14.0057C13.642 13.7525 13.4999 13.4091 13.5 13.0511C13.5001 12.693 13.6425 12.3497 13.8959 12.0967C14.1492 11.8436 14.4927 11.7015 14.8509 11.7016C15.2091 11.7017 15.5525 11.844 15.8057 12.0973C16.0589 12.3505 16.201 12.6939 16.2009 13.052C16.2008 13.41 16.0584 13.7533 15.805 14.0064C15.5517 14.2594 15.2082 14.4015 14.85 14.4014ZM6.3 2.14647C6.3045 1.16766 5.3667 0.3013 5.0517 0.0377045C5.02306 0.0133645 4.98669 0 4.9491 0C4.91151 0 4.87514 0.0133645 4.8465 0.0377045C4.5297 0.299501 3.5955 1.15056 3.6 2.14557C3.6 2.95075 4.2057 3.60569 4.95 3.60569C5.6943 3.60569 6.3 2.95075 6.3 2.14647ZM10.35 2.14647C10.3545 1.16766 9.4167 0.300401 9.1017 0.0377045C9.07306 0.0133645 9.03669 0 8.9991 0C8.96151 0 8.92514 0.0133645 8.8965 0.0377045C8.5788 0.299501 7.6446 1.15146 7.6491 2.14647C7.65 2.95075 8.2557 3.60569 9 3.60569C9.7443 3.60569 10.35 2.95075 10.35 2.14647ZM14.4 2.14647C14.4045 1.16766 13.4667 0.300401 13.1517 0.0377045C13.1231 0.0133645 13.0867 0 13.0491 0C13.0115 0 12.9751 0.0133645 12.9465 0.0377045C12.6297 0.299501 11.6955 1.15056 11.7 2.14557C11.7 2.95075 12.3057 3.60569 13.05 3.60569C13.7943 3.60569 14.4 2.95075 14.4 2.14647Z" fill="#D0D0D0"/>
</svg>
