<svg width="18" height="20" viewBox="0 0 18 20" fill="none" xmlns="http://www.w3.org/2000/svg">
<path d="M13 0C13.2449 3.23106e-05 13.4813 0.0899562 13.6644 0.252715C13.8474 0.415475 13.9643 0.639749 13.993 0.883L14 1V2H15C15.7652 1.99996 16.5015 2.29233 17.0583 2.81728C17.615 3.34224 17.9501 4.06011 17.995 4.824L18 5V17C18 17.7652 17.7077 18.5015 17.1827 19.0583C16.6578 19.615 15.9399 19.9501 15.176 19.995L15 20H3C2.23479 20 1.49849 19.7077 0.941739 19.1827C0.384993 18.6578 0.0498925 17.9399 0.00500012 17.176L4.66045e-09 17V5C-4.26217e-05 4.23479 0.292325 3.49849 0.817284 2.94174C1.34224 2.38499 2.06011 2.04989 2.824 2.005L3 2H4V1C4.00028 0.74512 4.09788 0.499968 4.27285 0.314632C4.44782 0.129296 4.68695 0.017765 4.94139 0.00282788C5.19584 -0.0121092 5.44638 0.0706746 5.64183 0.234265C5.83729 0.397855 5.9629 0.629904 5.993 0.883L6 1V2H12V1C12 0.734784 12.1054 0.48043 12.2929 0.292893C12.4804 0.105357 12.7348 0 13 0ZM16 7H2V16.625C2 17.33 2.386 17.911 2.883 17.991L3 18H15C15.513 18 15.936 17.47 15.993 16.785L16 16.625V7Z" fill="#D0D0D0"/>
<path d="M9.99889 10C10.2438 10 10.4802 10.09 10.6633 10.2527C10.8463 10.4155 10.9632 10.6397 10.9919 10.883L10.9989 11V14C10.9986 14.2549 10.901 14.5 10.726 14.6854C10.5511 14.8707 10.3119 14.9822 10.0575 14.9972C9.80306 15.0121 9.55251 14.9293 9.35706 14.7657C9.16161 14.6021 9.036 14.3701 9.00589 14.117L8.99889 14V12C8.74401 11.9997 8.49886 11.9021 8.31352 11.7272C8.12819 11.5522 8.01666 11.313 8.00172 11.0586C7.98678 10.8042 8.06957 10.5536 8.23316 10.3582C8.39675 10.1627 8.6288 10.0371 8.88189 10.007L8.99889 10H9.99889Z" fill="#D0D0D0"/>
</svg>
