<svg width="18" height="21" viewBox="0 0 18 21" fill="none" xmlns="http://www.w3.org/2000/svg">
<path d="M16.2899 9.5508C15.9943 9.2021 15.6343 8.89989 15.3001 8.59768C14.4388 7.90027 13.4619 7.40047 12.6392 6.66819C10.7238 4.97117 10.2996 2.16993 11.5208 0.0195923C10.2996 0.286931 9.23264 0.891349 8.31995 1.55388C4.99056 3.97156 3.67937 8.23735 5.24765 11.8987C5.29907 12.015 5.35049 12.1312 5.35049 12.2823C5.35049 12.538 5.15767 12.7705 4.90058 12.8635C4.60492 12.9797 4.2964 12.91 4.05216 12.724C3.9792 12.6687 3.91818 12.6017 3.87219 12.5264C2.4196 10.8642 2.18821 8.48145 3.16518 6.5752C1.01843 8.15599 -0.151356 10.8294 0.0157558 13.3517C0.0928845 13.9328 0.170013 14.514 0.388545 15.0952C0.568512 15.7926 0.915591 16.49 1.30123 17.106C2.68955 19.1169 5.0934 20.5582 7.67721 20.8488C10.4281 21.1626 13.3719 20.7093 15.4801 18.989C17.8325 17.0595 18.6552 13.9677 17.4468 11.3176L17.2797 11.0154C17.0098 10.4807 16.2899 9.5508 16.2899 9.5508ZM12.2278 16.8736C11.8679 17.1525 11.2766 17.4547 10.8138 17.571C9.37404 18.0359 7.93431 17.385 7.08589 16.6178C8.61561 16.2924 9.5283 15.2695 9.79825 14.235C10.0168 13.3052 9.60543 12.538 9.43832 11.643C9.28406 10.7829 9.30977 10.0506 9.65685 9.24859C9.90109 9.69028 10.1582 10.132 10.4667 10.4807C11.4565 11.643 13.0119 12.1544 13.3462 13.7352C13.3976 13.898 13.4233 14.0607 13.4233 14.235C13.4619 15.1882 12.9991 16.2343 12.2278 16.8736Z" fill="#FFD700"/>
</svg>
