<svg width="18" height="18" viewBox="0 0 18 18" fill="none" xmlns="http://www.w3.org/2000/svg">
<path d="M16.9629 1.93359C17.1152 2.19727 17.2529 2.44922 17.376 2.68945C17.499 2.92969 17.6104 3.17285 17.71 3.41895C17.8096 3.66504 17.8799 3.91992 17.9209 4.18359C17.9619 4.44727 17.9883 4.74023 18 5.0625C18 5.52539 17.9414 5.9707 17.8242 6.39844C17.707 6.82617 17.5371 7.23047 17.3145 7.61133C17.0918 7.99219 16.8252 8.33496 16.5146 8.63965C16.2041 8.94434 15.8613 9.20801 15.4863 9.43066C15.1113 9.65332 14.71 9.82324 14.2822 9.94043C13.8545 10.0576 13.4062 10.1191 12.9375 10.125C12.8027 10.125 12.668 10.1191 12.5332 10.1074C12.3984 10.0957 12.2607 10.0781 12.1201 10.0547L5.03613 17.1387C4.75488 17.4199 4.43555 17.6338 4.07812 17.7803C3.7207 17.9268 3.34277 18 2.94434 18C2.54004 18 2.15918 17.9238 1.80176 17.7715C1.44434 17.6191 1.13379 17.4082 0.870117 17.1387C0.606445 16.8691 0.395508 16.5557 0.237305 16.1982C0.0791016 15.8408 0 15.46 0 15.0557C0 14.6631 0.0732422 14.2881 0.219727 13.9307C0.366211 13.5732 0.580078 13.251 0.861328 12.9639L7.94531 5.87988C7.92188 5.74512 7.9043 5.61035 7.89258 5.47559C7.88086 5.34082 7.875 5.20312 7.875 5.0625C7.875 4.59961 7.93359 4.1543 8.05078 3.72656C8.16797 3.29883 8.33789 2.89453 8.56055 2.51367C8.7832 2.13281 9.0498 1.79004 9.36035 1.48535C9.6709 1.18066 10.0137 0.916992 10.3887 0.694336C10.7637 0.47168 11.165 0.301758 11.5928 0.18457C12.0205 0.0673828 12.4688 0.00585938 12.9375 0C13.2539 0 13.5439 0.0234375 13.8076 0.0703125C14.0713 0.117188 14.3291 0.19043 14.5811 0.290039C14.833 0.389648 15.0762 0.498047 15.3105 0.615234C15.5449 0.732422 15.7969 0.873047 16.0664 1.03711L12.6035 4.5L13.5 5.39648L16.9629 1.93359ZM12.9375 9C13.4824 9 13.9922 8.89746 14.4668 8.69238C14.9414 8.4873 15.3574 8.20605 15.7148 7.84863C16.0723 7.49121 16.3535 7.0752 16.5586 6.60059C16.7637 6.12598 16.8691 5.61328 16.875 5.0625C16.875 4.63477 16.8047 4.22168 16.6641 3.82324L13.5 6.97852L11.0215 4.5L14.1768 1.33594C13.7783 1.19531 13.3652 1.125 12.9375 1.125C12.3926 1.125 11.8828 1.22754 11.4082 1.43262C10.9336 1.6377 10.5176 1.91895 10.1602 2.27637C9.80273 2.63379 9.52148 3.0498 9.31641 3.52441C9.11133 3.99902 9.00586 4.51172 9 5.0625C9 5.26758 9.01758 5.4668 9.05273 5.66016C9.08789 5.85352 9.12891 6.04688 9.17578 6.24023L1.66113 13.7637C1.49121 13.9336 1.35938 14.1299 1.26562 14.3525C1.17188 14.5752 1.125 14.8096 1.125 15.0557C1.125 15.3018 1.17188 15.5361 1.26562 15.7588C1.35938 15.9814 1.49121 16.1748 1.66113 16.3389C1.83105 16.5029 2.02441 16.6318 2.24121 16.7256C2.45801 16.8193 2.69238 16.8691 2.94434 16.875C3.19043 16.875 3.4248 16.8281 3.64746 16.7344C3.87012 16.6406 4.06641 16.5088 4.23633 16.3389L11.7598 8.82422C11.9531 8.87109 12.1465 8.91211 12.3398 8.94727C12.5332 8.98242 12.7324 9 12.9375 9Z" fill="#D0D0D0"/>
</svg>
