<svg width="34" height="34" viewBox="0 0 34 34" fill="none" xmlns="http://www.w3.org/2000/svg">
<path d="M22.2738 18.7383C23.1224 17.8898 24.0416 18.3848 24.4093 18.7525C25.0025 19.3457 24.9806 20.2742 24.3951 20.8597L19.799 25.4558C16.9705 28.2843 13.3402 27.4824 10.6066 24.7487C7.87289 22.0151 7.63954 20.3675 9.05376 14.7107L9.7849 11.7578C10.0197 10.765 11.1192 10.2721 12.0441 10.7445C12.3469 10.8986 12.5951 11.142 12.7552 11.4417C12.9153 11.7414 12.9795 12.083 12.9393 12.4203L12.7045 15.5797M12.7279 15.5564L18.7241 9.56009" stroke="#684ADC" stroke-width="2" stroke-linecap="round" stroke-linejoin="round"/>
<path d="M21.2131 19.799L23.6879 17.3241C23.9692 17.0428 24.1273 16.6613 24.1273 16.2635C24.1273 15.8656 23.9692 15.4841 23.6879 15.2028C23.4066 14.9215 23.0251 14.7635 22.6273 14.7635C22.2294 14.7635 21.8479 14.9215 21.5666 15.2028L19.0917 17.6777L22.2737 14.4957C22.555 14.2144 22.7131 13.8329 22.7131 13.435C22.7131 13.0372 22.555 12.6557 22.2737 12.3744C21.9924 12.0931 21.6109 11.935 21.2131 11.935C20.8152 11.935 20.4337 12.0931 20.1524 12.3744L16.9704 15.5564L22.9808 9.54595C23.2621 9.26464 23.4202 8.88311 23.4202 8.48529C23.4202 8.08746 23.2621 7.70593 22.9808 7.42463C22.6995 7.14332 22.318 6.98529 21.9202 6.98529C21.5223 6.98529 21.1408 7.14332 20.8595 7.42463L14.8491 13.435" stroke="#684ADC" stroke-width="2" stroke-linecap="round" stroke-linejoin="round"/>
</svg>
